<svg width="39" height="39" viewBox="0 0 39 39" fill="none" xmlns="http://www.w3.org/2000/svg">
<path d="M19.5 0C15.6433 0 11.8731 1.14366 8.66639 3.28634C5.45963 5.42903 2.96027 8.47451 1.48436 12.0377C0.00844905 15.6008 -0.377716 19.5216 0.374696 23.3043C1.12711 27.0869 2.9843 30.5615 5.71143 33.2886C8.43855 36.0157 11.9131 37.8729 15.6957 38.6253C19.4784 39.3777 23.3992 38.9916 26.9623 37.5156C30.5255 36.0397 33.571 33.5404 35.7137 30.3336C37.8564 27.1269 39 23.3567 39 19.5C38.9945 14.33 36.9383 9.37322 33.2826 5.71745C29.6268 2.06167 24.6701 0.00545966 19.5 0ZM28.0613 16.0613L17.5613 26.5613C17.4219 26.7007 17.2565 26.8114 17.0744 26.8868C16.8923 26.9623 16.6971 27.0012 16.5 27.0012C16.3029 27.0012 16.1077 26.9623 15.9256 26.8868C15.7435 26.8114 15.5781 26.7007 15.4388 26.5613L10.9388 22.0613C10.6573 21.7798 10.4992 21.398 10.4992 21C10.4992 20.602 10.6573 20.2202 10.9388 19.9387C11.2202 19.6573 11.602 19.4992 12 19.4992C12.3981 19.4992 12.7798 19.6573 13.0613 19.9387L16.5 23.3794L25.9388 13.9387C26.0781 13.7994 26.2436 13.6888 26.4257 13.6134C26.6078 13.538 26.8029 13.4992 27 13.4992C27.1971 13.4992 27.3923 13.538 27.5744 13.6134C27.7564 13.6888 27.9219 13.7994 28.0613 13.9387C28.2006 14.0781 28.3112 14.2436 28.3866 14.4257C28.462 14.6077 28.5008 14.8029 28.5008 15C28.5008 15.1971 28.462 15.3923 28.3866 15.5743C28.3112 15.7564 28.2006 15.9219 28.0613 16.0613Z" fill="#30A46B"/>
</svg>
