<svg width="39" height="39" viewBox="0 0 39 39" fill="none" xmlns="http://www.w3.org/2000/svg">
<path d="M19.5 0C15.6433 0 11.8731 1.14366 8.66639 3.28634C5.45963 5.42903 2.96027 8.47451 1.48436 12.0377C0.00844905 15.6008 -0.377716 19.5216 0.374696 23.3043C1.12711 27.0869 2.9843 30.5615 5.71143 33.2886C8.43855 36.0157 11.9131 37.8729 15.6957 38.6253C19.4784 39.3777 23.3992 38.9916 26.9623 37.5156C30.5255 36.0397 33.571 33.5404 35.7137 30.3336C37.8564 27.1269 39 23.3567 39 19.5C38.9945 14.33 36.9383 9.37322 33.2826 5.71745C29.6268 2.06167 24.6701 0.00545966 19.5 0ZM18 10.5C18 10.1022 18.158 9.72064 18.4393 9.43934C18.7207 9.15804 19.1022 9 19.5 9C19.8978 9 20.2794 9.15804 20.5607 9.43934C20.842 9.72064 21 10.1022 21 10.5V21C21 21.3978 20.842 21.7794 20.5607 22.0607C20.2794 22.342 19.8978 22.5 19.5 22.5C19.1022 22.5 18.7207 22.342 18.4393 22.0607C18.158 21.7794 18 21.3978 18 21V10.5ZM19.5 30C19.055 30 18.62 29.868 18.25 29.6208C17.88 29.3736 17.5916 29.0222 17.4213 28.611C17.251 28.1999 17.2064 27.7475 17.2932 27.311C17.3801 26.8746 17.5943 26.4737 17.909 26.159C18.2237 25.8443 18.6246 25.63 19.0611 25.5432C19.4975 25.4564 19.9499 25.501 20.361 25.6713C20.7722 25.8416 21.1236 26.13 21.3708 26.5C21.618 26.87 21.75 27.305 21.75 27.75C21.75 28.3467 21.513 28.919 21.091 29.341C20.669 29.7629 20.0967 30 19.5 30Z" fill="#DF4A34"/>
</svg>
