<svg width="20" height="20" viewBox="0 0 20 20" fill="none" xmlns="http://www.w3.org/2000/svg">
<path d="M18.0348 7.46109C17.7109 7.1225 17.3757 6.77359 17.2494 6.4668C17.1325 6.18578 17.1256 5.72 17.1187 5.26883C17.1059 4.43008 17.0921 3.47961 16.4312 2.81875C15.7704 2.15789 14.8199 2.14414 13.9812 2.13125C13.53 2.12437 13.0642 2.1175 12.7832 2.00062C12.4773 1.8743 12.1275 1.53914 11.7889 1.21516C11.1959 0.645391 10.5222 0 9.625 0C8.72781 0 8.05492 0.645391 7.46109 1.21516C7.1225 1.53914 6.77359 1.8743 6.4668 2.00062C6.1875 2.1175 5.72 2.12437 5.26883 2.13125C4.43008 2.14414 3.47961 2.15789 2.81875 2.81875C2.15789 3.47961 2.14844 4.43008 2.13125 5.26883C2.12437 5.72 2.1175 6.18578 2.00062 6.4668C1.8743 6.77273 1.53914 7.1225 1.21516 7.46109C0.645391 8.05406 0 8.72781 0 9.625C0 10.5222 0.645391 11.1951 1.21516 11.7889C1.53914 12.1275 1.8743 12.4764 2.00062 12.7832C2.1175 13.0642 2.12437 13.53 2.13125 13.9812C2.14414 14.8199 2.15789 15.7704 2.81875 16.4312C3.47961 17.0921 4.43008 17.1059 5.26883 17.1187C5.72 17.1256 6.18578 17.1325 6.4668 17.2494C6.77273 17.3757 7.1225 17.7109 7.46109 18.0348C8.05406 18.6046 8.72781 19.25 9.625 19.25C10.5222 19.25 11.1951 18.6046 11.7889 18.0348C12.1275 17.7109 12.4764 17.3757 12.7832 17.2494C13.0642 17.1325 13.53 17.1256 13.9812 17.1187C14.8199 17.1059 15.7704 17.0921 16.4312 16.4312C17.0921 15.7704 17.1059 14.8199 17.1187 13.9812C17.1256 13.53 17.1325 13.0642 17.2494 12.7832C17.3757 12.4773 17.7109 12.1275 18.0348 11.7889C18.6046 11.1959 19.25 10.5222 19.25 9.625C19.25 8.72781 18.6046 8.05492 18.0348 7.46109ZM13.5489 8.04891L8.73641 12.8614C8.67256 12.9253 8.59673 12.976 8.51327 13.0106C8.42981 13.0452 8.34035 13.063 8.25 13.063C8.15965 13.063 8.07019 13.0452 7.98673 13.0106C7.90327 12.976 7.82744 12.9253 7.76359 12.8614L5.70109 10.7989C5.57209 10.6699 5.49962 10.4949 5.49962 10.3125C5.49962 10.1301 5.57209 9.9551 5.70109 9.82609C5.8301 9.69709 6.00506 9.62462 6.1875 9.62462C6.36994 9.62462 6.5449 9.69709 6.67391 9.82609L8.25 11.403L12.5761 7.07609C12.64 7.01222 12.7158 6.96155 12.7993 6.92698C12.8827 6.89241 12.9722 6.87462 13.0625 6.87462C13.1528 6.87462 13.2423 6.89241 13.3257 6.92698C13.4092 6.96155 13.485 7.01222 13.5489 7.07609C13.6128 7.13997 13.6635 7.2158 13.698 7.29926C13.7326 7.38272 13.7504 7.47217 13.7504 7.5625C13.7504 7.65283 13.7326 7.74228 13.698 7.82574C13.6635 7.9092 13.6128 7.98503 13.5489 8.04891Z" fill="#0988F0"/>
</svg>
