<svg width="28" height="28" viewBox="0 0 28 28" fill="none" xmlns="http://www.w3.org/2000/svg">
<path d="M23.625 14.2363C23.6294 14.0788 23.6294 13.9213 23.625 13.7638L25.2569 11.725C25.3425 11.618 25.4017 11.4924 25.4298 11.3582C25.458 11.2241 25.4542 11.0853 25.4188 10.9529C25.1508 9.94743 24.7506 8.98198 24.2288 8.08177C24.1604 7.96399 24.0655 7.8638 23.9515 7.78918C23.8376 7.71456 23.7078 7.66756 23.5725 7.65193L20.9782 7.36317C20.8703 7.24942 20.7609 7.14005 20.6501 7.03505L20.3438 4.43411C20.328 4.29872 20.2809 4.16888 20.2061 4.05494C20.1312 3.94101 20.0308 3.84612 19.9129 3.77786C19.0127 3.25642 18.0472 2.85698 17.0418 2.59005C16.9094 2.55468 16.7705 2.5509 16.6364 2.57902C16.5023 2.60713 16.3766 2.66636 16.2696 2.75192L14.2363 4.37505C14.0788 4.37505 13.9213 4.37505 13.7638 4.37505L11.725 2.74646C11.618 2.66089 11.4924 2.60166 11.3582 2.57355C11.2241 2.54543 11.0853 2.54921 10.9529 2.58458C9.94743 2.85258 8.98198 3.25273 8.08177 3.77458C7.96399 3.84297 7.8638 3.93791 7.78918 4.05183C7.71456 4.16576 7.66756 4.29554 7.65193 4.43083L7.36317 7.02958C7.24942 7.13823 7.14005 7.2476 7.03505 7.35771L4.43411 7.6563C4.29872 7.67205 4.16888 7.71922 4.05494 7.79403C3.94101 7.86885 3.84612 7.96926 3.77786 8.08724C3.25652 8.98757 2.85674 9.953 2.58896 10.9583C2.55373 11.0908 2.55013 11.2297 2.57844 11.3638C2.60675 11.498 2.66617 11.6236 2.75192 11.7305L4.37505 13.7638C4.37505 13.9213 4.37505 14.0788 4.37505 14.2363L2.74646 16.2751C2.66089 16.3821 2.60166 16.5077 2.57355 16.6419C2.54543 16.776 2.54921 16.9148 2.58458 17.0472C2.85258 18.0527 3.25273 19.0181 3.77458 19.9183C3.84297 20.0361 3.93791 20.1363 4.05183 20.2109C4.16576 20.2855 4.29554 20.3325 4.43083 20.3482L7.02521 20.6369C7.13385 20.7507 7.24323 20.8601 7.35333 20.965L7.6563 23.566C7.67205 23.7014 7.71922 23.8312 7.79403 23.9452C7.86885 24.0591 7.96926 24.154 8.08724 24.2222C8.98757 24.7436 9.953 25.1434 10.9583 25.4111C11.0908 25.4464 11.2297 25.45 11.3638 25.4217C11.498 25.3934 11.6236 25.3339 11.7305 25.2482L13.7638 23.625C13.9213 23.6294 14.0788 23.6294 14.2363 23.625L16.2751 25.2569C16.3821 25.3425 16.5077 25.4017 16.6419 25.4298C16.776 25.458 16.9148 25.4542 17.0472 25.4188C18.0528 25.1513 19.0183 24.7511 19.9183 24.2288C20.0361 24.1604 20.1363 24.0655 20.2109 23.9515C20.2855 23.8376 20.3325 23.7078 20.3482 23.5725L20.6369 20.9782C20.7507 20.8703 20.8601 20.7609 20.965 20.6501L23.566 20.3438C23.7014 20.328 23.8312 20.2809 23.9452 20.2061C24.0591 20.1312 24.154 20.0308 24.2222 19.9129C24.7436 19.0125 25.1434 18.0471 25.4111 17.0418C25.4464 16.9093 25.45 16.7704 25.4217 16.6363C25.3934 16.5021 25.3339 16.3765 25.2482 16.2696L23.625 14.2363ZM14 18.375C13.1348 18.375 12.2889 18.1185 11.5694 17.6377C10.85 17.157 10.2892 16.4737 9.95808 15.6743C9.62694 14.8749 9.5403 13.9952 9.70911 13.1465C9.87792 12.2979 10.2946 11.5183 10.9065 10.9065C11.5183 10.2946 12.2979 9.87792 13.1465 9.70911C13.9952 9.5403 14.8749 9.62694 15.6743 9.95808C16.4737 10.2892 17.157 10.85 17.6377 11.5694C18.1185 12.2889 18.375 13.1348 18.375 14C18.375 15.1604 17.9141 16.2732 17.0936 17.0936C16.2732 17.9141 15.1604 18.375 14 18.375Z" fill="#9A9A9A"/>
</svg>
