<svg width="28" height="28" viewBox="0 0 28 28" fill="none" xmlns="http://www.w3.org/2000/svg">
<path d="M24.0626 18.4943L14.0001 24.3622L3.9376 18.4943C3.73837 18.3951 3.50882 18.3755 3.29568 18.4396C3.08255 18.5037 2.90184 18.6466 2.79034 18.8392C2.67884 19.0318 2.64493 19.2597 2.69551 19.4764C2.74609 19.6931 2.87736 19.8825 3.0626 20.0058L13.5626 26.1308C13.6964 26.2088 13.8485 26.25 14.0034 26.25C14.1583 26.25 14.3104 26.2088 14.4442 26.1308L24.9442 20.0058C25.045 19.9488 25.1335 19.8722 25.2046 19.7807C25.2756 19.6892 25.3278 19.5844 25.358 19.4726C25.3882 19.3607 25.3959 19.244 25.3807 19.1291C25.3654 19.0142 25.3275 18.9035 25.2691 18.8034C25.2108 18.7033 25.1331 18.6158 25.0406 18.546C24.9482 18.4762 24.8427 18.4254 24.7305 18.3967C24.6183 18.3679 24.5014 18.3617 24.3868 18.3785C24.2721 18.3952 24.1619 18.4346 24.0626 18.4943Z" fill="#9A9A9A"/>
<path d="M24.0626 13.2443L14.0001 19.1122L3.9376 13.2443C3.73837 13.1451 3.50882 13.1255 3.29568 13.1896C3.08255 13.2537 2.90184 13.3966 2.79034 13.5892C2.67884 13.7818 2.64493 14.0097 2.69551 14.2264C2.74609 14.4431 2.87736 14.6325 3.0626 14.7558L13.5626 20.8808C13.6964 20.9588 13.8485 21 14.0034 21C14.1583 21 14.3104 20.9588 14.4442 20.8808L24.9442 14.7558C25.045 14.6988 25.1335 14.6222 25.2046 14.5307C25.2756 14.4392 25.3278 14.3344 25.358 14.2226C25.3882 14.1107 25.3959 13.994 25.3807 13.8791C25.3654 13.7642 25.3275 13.6535 25.2691 13.5534C25.2108 13.4534 25.1331 13.3658 25.0406 13.296C24.9482 13.2262 24.8427 13.1754 24.7305 13.1467C24.6183 13.1179 24.5014 13.1117 24.3868 13.1285C24.2721 13.1452 24.1619 13.1846 24.0626 13.2443Z" fill="#9A9A9A"/>
<path d="M3.06249 9.50582L13.5625 15.6308C13.6963 15.7088 13.8484 15.7499 14.0033 15.7499C14.1581 15.7499 14.3103 15.7088 14.444 15.6308L24.944 9.50582C25.0761 9.42876 25.1857 9.31842 25.2619 9.18582C25.338 9.05321 25.3781 8.90296 25.3781 8.75004C25.3781 8.59711 25.338 8.44686 25.2619 8.31425C25.1857 8.18165 25.0761 8.07131 24.944 7.99425L14.444 1.86925C14.3103 1.79123 14.1581 1.75012 14.0033 1.75012C13.8484 1.75012 13.6963 1.79123 13.5625 1.86925L3.06249 7.99425C2.9304 8.07131 2.82082 8.18165 2.74466 8.31425C2.6685 8.44686 2.62842 8.59711 2.62842 8.75004C2.62842 8.90296 2.6685 9.05321 2.74466 9.18582C2.82082 9.31842 2.9304 9.42876 3.06249 9.50582Z" fill="#9A9A9A"/>
</svg>
