<svg xmlns="http://www.w3.org/2000/svg" width="17" height="17" viewBox="0 0 17 17" fill="none">
  <path d="M8.125 0C6.51803 0 4.94714 0.476523 3.611 1.36931C2.27485 2.2621 1.23344 3.53105 0.618482 5.0157C0.00352044 6.50035 -0.157382 8.13401 0.156123 9.71011C0.469628 11.2862 1.24346 12.7339 2.37976 13.8702C3.51606 15.0065 4.9638 15.7804 6.53989 16.0939C8.11599 16.4074 9.74966 16.2465 11.2343 15.6315C12.719 15.0166 13.9879 13.9752 14.8807 12.639C15.7735 11.3029 16.25 9.73197 16.25 8.125C16.2477 5.97081 15.391 3.90551 13.8677 2.38227C12.3445 0.85903 10.2792 0.00227486 8.125 0ZM10.6922 9.80781C10.8095 9.92509 10.8754 10.0841 10.8754 10.25C10.8754 10.4159 10.8095 10.5749 10.6922 10.6922C10.5749 10.8095 10.4159 10.8754 10.25 10.8754C10.0841 10.8754 9.92509 10.8095 9.80781 10.6922L8.125 9.00859L6.44219 10.6922C6.32491 10.8095 6.16585 10.8754 6 10.8754C5.83415 10.8754 5.67509 10.8095 5.55781 10.6922C5.44054 10.5749 5.37465 10.4159 5.37465 10.25C5.37465 10.0841 5.44054 9.92509 5.55781 9.80781L7.24141 8.125L5.55781 6.44219C5.44054 6.32491 5.37465 6.16585 5.37465 6C5.37465 5.83415 5.44054 5.67509 5.55781 5.55781C5.67509 5.44054 5.83415 5.37465 6 5.37465C6.16585 5.37465 6.32491 5.44054 6.44219 5.55781L8.125 7.24141L9.80781 5.55781C9.92509 5.44054 10.0841 5.37465 10.25 5.37465C10.4159 5.37465 10.5749 5.44054 10.6922 5.55781C10.8095 5.67509 10.8754 5.83415 10.8754 6C10.8754 6.16585 10.8095 6.32491 10.6922 6.44219L9.00859 8.125L10.6922 9.80781Z" fill="#DF4A34"/>
</svg>
